<?xml version="1.0" encoding="UTF-8" standalone="no"?>
<!DOCTYPE svg PUBLIC "-//W3C//DTD SVG 1.1//EN" "http://www.w3.org/Graphics/SVG/1.1/DTD/svg11.dtd">
<svg width="100%" height="100%" viewBox="0 0 279 195" version="1.1" xmlns="http://www.w3.org/2000/svg" xmlns:xlink="http://www.w3.org/1999/xlink" xml:space="preserve" xmlns:serif="http://www.serif.com/" style="fill-rule:evenodd;clip-rule:evenodd;stroke-miterlimit:10;">
    <g id="Layer_1">
        <g>
            <path d="M26.738,103.089C22.58,75.278 13.237,72.848 6.055,58.808C-0.479,46.063 -5.717,25.165 12.697,10.206C41.318,-13.014 76.419,10.746 76.419,10.746C76.419,10.746 132.04,42.607 141.761,44.227C151.481,45.847 175.241,62.048 204.942,42.607C234.643,23.167 260.024,24.787 268.124,39.367C276.224,53.947 257.864,96.068 253.543,104.709C249.223,113.349 255.703,140.35 262.724,151.15C269.744,161.95 291.884,195.431 244.363,194.351C196.842,193.271 54.278,194.891 54.278,194.891C54.278,194.891 3.085,193.919 12.157,144.13C19.717,102.549 28.358,113.889 26.738,103.089Z" style="fill:rgb(248,248,255);fill-rule:nonzero;"/>
            <circle cx="45.098" cy="88.508" r="10.8" style="fill:rgb(186,197,244);"/>
            <circle cx="27.008" cy="101.739" r="7.29" style="fill:rgb(186,197,244);"/>
            <circle cx="28.088" cy="84.998" r="4.05" style="fill:rgb(186,197,244);"/>
            <g transform="matrix(0.1602,-0.9871,0.9871,0.1602,65.4021,399.648)">
                <circle cx="267.584" cy="161.41" r="10.8" style="fill:rgb(186,197,244);"/>
            </g>
            <circle cx="8.107" cy="33.697" r="4.05" style="fill:rgb(186,197,244);"/>
            <circle cx="75.609" cy="160.6" r="19.17" style="fill:rgb(225,230,251);"/>
            <circle cx="202.242" cy="175.991" r="12.96" style="fill:rgb(225,230,251);"/>
            <circle cx="251.923" cy="109.029" r="7.02" style="fill:rgb(225,230,251);"/>
            <circle cx="199.542" cy="45.847" r="14.04" style="fill:rgb(225,230,251);"/>
            <circle cx="70.749" cy="8.316" r="6.75" style="fill:rgb(225,230,251);"/>
            <circle cx="49.148" cy="142.78" r="6.75" style="fill:rgb(225,230,251);"/>
            <circle cx="266.774" cy="64.478" r="6.75" style="fill:rgb(186,197,244);"/>
            <circle cx="255.973" cy="178.961" r="7.29" style="fill:rgb(186,197,244);"/>
            <circle cx="272.174" cy="182.741" r="4.05" style="fill:rgb(186,197,244);"/>
        </g>
    </g>
    <g id="Layer_2">
        <g id="Computer">
            <path d="M155.639,152.878L219.469,152.878C219.469,152.878 221.845,152.77 221.845,149.962L221.845,144.454L153.101,144.454L153.101,151.096C153.479,152.23 154.451,152.932 155.639,152.878" style="fill:rgb(186,197,244);fill-rule:nonzero;"/>
            <path d="M153.101,103.035L153.047,146.614L221.791,145.966L221.791,101.739C221.791,101.739 222.223,99.201 219.523,99.201L155.693,99.201C155.693,99.255 152.831,99.255 153.101,103.035" style="fill:rgb(186,197,244);fill-rule:nonzero;"/>
            <path d="M182.046,164.596L182.046,152.446L192.09,152.878L192.09,163.516L182.046,164.596Z" style="fill:rgb(186,197,244);fill-rule:nonzero;"/>
            <path d="M166.061,163.354L207.858,163.354L207.912,165.46L166.061,165.46L166.061,163.354Z" style="fill:rgb(186,197,244);fill-rule:nonzero;"/>
            <path d="M186.852,147.478C187.986,147.478 188.85,148.342 188.85,149.476C188.85,150.61 187.986,151.474 186.852,151.474C185.718,151.474 184.854,150.61 184.854,149.476C184.854,148.342 185.772,147.478 186.852,147.478" style="fill:white;fill-rule:nonzero;"/>
            <rect x="155.207" y="101.361" width="64.532" height="42.337" style="fill:rgb(248,248,255);"/>
            <path d="M158.447,103.521C158.987,103.521 159.473,104.007 159.473,104.547C159.473,105.087 158.987,105.573 158.447,105.573C157.907,105.573 157.421,105.087 157.421,104.547C157.421,104.007 157.907,103.521 158.447,103.521" style="fill:rgb(250,95,93);fill-rule:nonzero;"/>
            <path d="M161.903,103.521C162.443,103.521 162.929,104.007 162.929,104.547C162.929,105.087 162.443,105.573 161.903,105.573C161.363,105.573 160.877,105.087 160.877,104.547C160.877,104.007 161.309,103.521 161.903,103.521" style="fill:rgb(253,188,78);fill-rule:nonzero;"/>
            <path d="M165.467,103.521C166.007,103.521 166.493,104.007 166.493,104.547C166.493,105.087 166.007,105.573 165.467,105.573C164.927,105.573 164.441,105.087 164.441,104.547C164.495,104.007 164.927,103.521 165.467,103.521" style="fill:rgb(55,205,88);fill-rule:nonzero;"/>
            <path d="M179.508,110.919C179.454,111.459 179.022,111.891 178.482,111.837L166.115,111.837C165.467,111.837 164.873,111.405 164.873,110.919L164.873,109.029C164.873,108.543 165.467,108.057 166.115,108.057L178.428,108.057C178.968,108.003 179.454,108.435 179.508,108.975L179.508,110.919Z" style="fill:url(#_Linear1);fill-rule:nonzero;"/>
            <path d="M209.262,123.393C209.208,123.987 208.722,124.419 208.128,124.419L166.115,124.419C165.467,124.419 164.873,123.933 164.873,123.393L164.873,114.105C164.873,113.565 165.521,113.079 166.115,113.079L208.128,113.079C208.722,113.025 209.208,113.511 209.262,114.105L209.262,123.393Z" style="fill:url(#_Linear2);fill-rule:nonzero;"/>
            <path d="M178.698,131.331C178.698,131.871 178.212,132.357 177.671,132.357L166.115,132.357C165.467,132.357 164.873,131.871 164.873,131.331L164.873,126.201C164.873,125.661 165.521,125.175 166.115,125.175L177.617,125.175C178.157,125.121 178.644,125.553 178.698,126.147L178.698,131.331Z" style="fill:url(#_Linear3);fill-rule:nonzero;"/>
            <path d="M193.764,131.331C193.764,131.871 193.278,132.357 192.738,132.357L181.182,132.357C180.534,132.357 179.94,131.871 179.94,131.331L179.94,126.201C179.94,125.661 180.588,125.175 181.182,125.175L192.684,125.175C193.224,125.121 193.71,125.553 193.764,126.147L193.764,131.331Z" style="fill:url(#_Linear4);fill-rule:nonzero;"/>
            <path d="M209.262,131.331C209.208,131.925 208.722,132.357 208.128,132.357L196.626,132.357C195.978,132.411 195.492,131.925 195.384,131.331L195.384,126.201C195.438,125.553 195.978,125.175 196.626,125.175L208.128,125.175C208.722,125.121 209.262,125.607 209.316,126.201L209.262,131.331Z" style="fill:url(#_Linear5);fill-rule:nonzero;"/>
            <path d="M193.764,134.247C193.656,134.463 193.494,134.571 193.278,134.625C193.224,134.625 193.224,134.625 193.17,134.463L180.534,134.463C180.264,134.625 179.886,134.463 179.886,134.247L179.886,134.085C179.886,133.869 180.264,133.653 180.534,133.599L193.17,133.599C193.386,133.653 193.494,133.815 193.548,133.977C193.548,134.031 193.548,134.031 193.656,134.085L193.764,134.247Z" style="fill:rgb(233,237,251);fill-rule:nonzero;"/>
            <path d="M193.764,135.867C193.656,136.083 193.494,136.245 193.278,136.299C193.278,136.299 193.224,136.299 193.224,136.137L180.534,136.137C180.264,136.299 179.886,136.137 179.886,135.867L179.886,135.705C179.886,135.489 180.264,135.327 180.534,135.273L193.17,135.273C193.386,135.327 193.602,135.489 193.656,135.705L193.764,135.867Z" style="fill:rgb(233,237,251);fill-rule:nonzero;"/>
            <path d="M193.764,137.542C193.656,137.812 193.494,137.974 193.278,138.028L193.278,137.812L180.588,137.812C180.372,137.92 180.102,137.92 179.994,137.704C179.94,137.65 179.94,137.596 179.94,137.596L179.94,137.434C179.94,137.218 180.318,137.11 180.588,137.002L193.224,137.002C193.44,137.056 193.656,137.218 193.71,137.434L193.764,137.542Z" style="fill:rgb(233,237,251);fill-rule:nonzero;"/>
            <path d="M193.764,139.162C193.656,139.432 193.494,139.648 193.278,139.864L180.588,139.864C180.318,139.648 179.94,139.378 179.94,139.162L179.94,139C179.94,138.784 180.318,138.514 180.588,138.622L193.224,138.622C193.386,138.568 193.548,138.73 193.602,138.892L193.602,139L193.71,139.054L193.764,139.162Z" style="fill:rgb(233,237,251);fill-rule:nonzero;"/>
            <path d="M186.744,140.836C186.744,141.052 186.636,141.106 186.366,141.106L180.534,141.106C180.264,141.106 179.94,140.998 179.94,140.836L179.94,140.674C179.94,140.458 180.264,140.296 180.534,140.296L186.366,140.296C186.582,140.296 186.744,140.458 186.744,140.674L186.744,140.836Z" style="fill:rgb(233,237,251);fill-rule:nonzero;"/>
            <path d="M209.262,134.247C208.992,134.463 209.046,134.625 208.776,134.463L196.14,134.463C195.924,134.625 195.708,134.517 195.708,134.301L195.816,134.247L195.816,134.085C195.708,133.869 195.87,133.653 196.086,133.599L208.722,133.599C208.992,133.707 208.938,133.869 209.208,134.085L209.208,134.247L209.262,134.247Z" style="fill:rgb(233,237,251);fill-rule:nonzero;"/>
            <path d="M209.262,135.867C208.992,136.083 209.046,136.299 208.776,136.137L196.14,136.137C195.87,136.299 195.708,136.137 195.87,135.867L195.87,135.705C195.762,135.489 195.924,135.327 196.14,135.273L208.776,135.273C209.046,135.381 208.992,135.489 209.262,135.705L209.262,135.867Z" style="fill:rgb(233,237,251);fill-rule:nonzero;"/>
            <path d="M209.262,137.542C208.992,137.758 209.046,138.028 208.776,137.812L196.14,137.812C195.87,137.974 195.708,137.812 195.87,137.542L195.87,137.38C195.762,137.164 195.924,137.056 196.14,136.948L208.776,136.948C209.046,137.056 208.992,137.164 209.262,137.38L209.262,137.542Z" style="fill:rgb(233,237,251);fill-rule:nonzero;"/>
            <path d="M209.262,139.162C208.992,139.378 209.046,139.648 208.776,139.864L196.14,139.864C195.87,139.594 195.708,139.378 195.87,139.162L195.87,139C195.762,138.892 195.762,138.73 195.87,138.676C195.978,138.622 196.032,138.568 196.14,138.622L208.83,138.622C209.1,138.514 209.046,138.784 209.316,139L209.316,139.162L209.262,139.162Z" style="fill:rgb(233,237,251);fill-rule:nonzero;"/>
            <path d="M202.296,140.836C202.296,141.052 202.296,141.106 202.08,141.106L196.194,141.106C195.924,141.106 195.816,140.998 195.816,140.836L195.816,140.674C195.816,140.458 195.978,140.296 196.194,140.296L202.026,140.296C202.296,140.296 202.242,140.458 202.242,140.674L202.296,140.836Z" style="fill:rgb(233,237,251);fill-rule:nonzero;"/>
            <path d="M178.266,134.247C178.428,134.463 178.374,134.625 178.103,134.463L165.413,134.463C165.251,134.571 165.035,134.571 164.927,134.409C164.873,134.355 164.873,134.301 164.819,134.247L164.819,134.085C164.927,133.815 165.089,133.653 165.359,133.599L177.995,133.599C178.266,133.707 178.32,133.869 178.157,134.085L178.266,134.247Z" style="fill:rgb(233,237,251);fill-rule:nonzero;"/>
            <path d="M178.266,135.867C178.428,136.083 178.374,136.299 178.103,136.137L165.413,136.137C165.143,136.353 164.927,136.137 164.873,135.867L164.873,135.705C164.927,135.489 165.143,135.327 165.413,135.273L178.049,135.273C178.32,135.381 178.374,135.489 178.212,135.705L178.266,135.867Z" style="fill:rgb(233,237,251);fill-rule:nonzero;"/>
            <path d="M178.266,137.542C178.428,137.758 178.374,138.028 178.103,137.812L165.413,137.812C165.143,138.028 164.927,137.812 164.873,137.542L164.873,137.38C164.927,137.164 165.143,137.056 165.413,136.948L178.049,136.948C178.32,137.056 178.374,137.164 178.212,137.38L178.266,137.542Z" style="fill:rgb(233,237,251);fill-rule:nonzero;"/>
            <path d="M174.485,138.622L178.103,138.622C178.374,138.514 178.428,138.784 178.266,139L178.266,139.162C178.428,139.378 178.374,139.648 178.103,139.864L165.413,139.864C165.143,139.702 164.981,139.432 164.873,139.162L164.873,139C164.927,138.73 165.143,138.568 165.413,138.622L174.485,138.622" style="fill:rgb(233,237,251);fill-rule:nonzero;"/>
            <path d="M172.001,140.836C172.001,141.052 171.893,141.106 171.623,141.106L165.359,141.106C165.089,141.106 164.873,140.998 164.873,140.836L164.873,140.674C164.927,140.458 165.143,140.296 165.359,140.296L171.623,140.296C171.839,140.296 172.001,140.458 172.001,140.62L172.001,140.836Z" style="fill:rgb(233,237,251);fill-rule:nonzero;"/>
        </g>
        <g>
            <path d="M120.916,60.374L141.167,36.235L165.305,56.539L145.055,80.624L120.916,60.374Z" style="fill:url(#_Linear6);fill-rule:nonzero;stroke:url(#_Linear7);stroke-width:2.7px;"/>
            <path d="M114.922,64.478L119.512,58.97L146.459,81.38L141.869,86.888L114.922,64.478Z" style="fill:url(#_Linear8);fill-rule:nonzero;stroke:url(#_Linear9);stroke-width:0.54px;"/>
            <path d="M150.293,59.834C148.565,59.834 128.044,65.612 128.044,65.612L143.975,79.112L146.783,72.092C146.783,72.092 150.833,59.834 150.293,59.834Z" style="fill:white;fill-rule:nonzero;"/>
            <rect x="110.494" y="33.103" width="31.699" height="31.699" style="fill:url(#_Linear10);stroke:url(#_Linear11);stroke-width:0.54px;"/>
            <rect x="110.224" y="32.833" width="31.699" height="31.699" style="fill:none;stroke:url(#_Linear12);stroke-width:2.7px;"/>
            <rect x="108.712" y="64.64" width="34.345" height="7.074" style="fill:url(#_Linear13);"/>
            <path d="M127.936,63.992L136.9,48.925L141.599,55.459L141.599,64.262L137.926,64.262L127.936,63.992Z" style="fill:white;fill-rule:nonzero;"/>
            <path d="M119.35,64.154L130.042,49.897L138.466,64.262L119.35,64.154Z" style="fill:white;fill-rule:nonzero;"/>
            <path d="M120.214,38.935C121.618,38.935 122.752,40.069 122.752,41.473C122.752,42.877 121.618,44.011 120.214,44.011C118.81,44.011 117.676,42.877 117.676,41.473C117.676,40.069 118.81,38.935 120.214,38.935" style="fill:white;fill-rule:nonzero;"/>
        </g>
        <g>
            <path d="M111.196,159.088C111.196,160.222 110.332,161.086 109.198,161.086L80.145,161.086C79.065,161.086 78.147,160.222 78.147,159.088L78.147,97.473C78.147,96.392 79.011,95.474 80.145,95.474L109.198,95.474C110.278,95.474 111.196,96.338 111.196,97.473L111.196,159.088Z" style="fill:url(#_Linear14);fill-rule:nonzero;"/>
            <rect x="81.495" y="104.223" width="26.731" height="48.601" style="fill:white;"/>
            <path d="M81.549,152.878L81.549,104.169L99.531,104.115L88.839,152.824L81.549,152.878Z" style="fill:white;fill-rule:nonzero;"/>
            <path d="M92.673,100.281L96.615,100.281C96.885,100.281 97.155,100.497 97.155,100.821C97.155,101.091 96.939,101.361 96.615,101.361L92.673,101.361C92.403,101.361 92.133,101.145 92.133,100.821C92.133,100.497 92.349,100.281 92.673,100.281Z" style="fill:white;fill-rule:nonzero;stroke:white;stroke-width:0.54px;"/>
            <circle cx="94.671" cy="98.391" r="0.486" style="fill:white;"/>
            <path d="M94.671,155.308C95.535,155.308 96.237,156.01 96.237,156.874C96.237,157.738 95.535,158.44 94.671,158.44C93.807,158.44 93.105,157.738 93.105,156.874C93.159,156.01 93.807,155.308 94.671,155.308" style="fill:none;fill-rule:nonzero;"/>
            <circle cx="94.671" cy="156.874" r="1.566" style="fill:white;stroke:white;stroke-width:1.08px;"/>
        </g>
    </g>
    <defs>
        <linearGradient id="_Linear1" x1="0" y1="0" x2="1" y2="0" gradientUnits="userSpaceOnUse" gradientTransform="matrix(14.6659,0,0,14.6659,164.855,109.937)"><stop offset="0" style="stop-color:rgb(247,29,105);stop-opacity:1"/><stop offset="1" style="stop-color:rgb(248,198,72);stop-opacity:1"/></linearGradient>
        <linearGradient id="_Linear2" x1="0" y1="0" x2="1" y2="0" gradientUnits="userSpaceOnUse" gradientTransform="matrix(13.8278,0,0,13.8278,164.855,128.792)"><stop offset="0" style="stop-color:rgb(75,69,189);stop-opacity:1"/><stop offset="1" style="stop-color:rgb(88,202,234);stop-opacity:1"/></linearGradient>
        <linearGradient id="_Linear3" x1="0" y1="0" x2="1" y2="0" gradientUnits="userSpaceOnUse" gradientTransform="matrix(13.8278,0,0,13.8278,164.855,128.792)"><stop offset="0" style="stop-color:rgb(75,69,189);stop-opacity:1"/><stop offset="1" style="stop-color:rgb(88,202,234);stop-opacity:1"/></linearGradient>
        <linearGradient id="_Linear4" x1="0" y1="0" x2="1" y2="0" gradientUnits="userSpaceOnUse" gradientTransform="matrix(13.8278,0,0,13.8278,164.855,128.792)"><stop offset="0" style="stop-color:rgb(75,69,189);stop-opacity:1"/><stop offset="1" style="stop-color:rgb(88,202,234);stop-opacity:1"/></linearGradient>
        <linearGradient id="_Linear5" x1="0" y1="0" x2="1" y2="0" gradientUnits="userSpaceOnUse" gradientTransform="matrix(13.8278,0,0,13.8278,164.855,128.792)"><stop offset="0" style="stop-color:rgb(75,69,189);stop-opacity:1"/><stop offset="1" style="stop-color:rgb(88,202,234);stop-opacity:1"/></linearGradient>
        <linearGradient id="_Linear6" x1="0" y1="0" x2="1" y2="0" gradientUnits="userSpaceOnUse" gradientTransform="matrix(-7.50252,-43.7742,43.7742,-7.50252,146.843,80.3369)"><stop offset="0" style="stop-color:rgb(75,69,189);stop-opacity:1"/><stop offset="1" style="stop-color:rgb(88,202,234);stop-opacity:1"/></linearGradient>
        <linearGradient id="_Linear7" x1="0" y1="0" x2="1" y2="0" gradientUnits="userSpaceOnUse" gradientTransform="matrix(-7.50252,-43.7742,43.7742,-7.50252,146.843,80.3369)"><stop offset="0" style="stop-color:rgb(75,69,189);stop-opacity:1"/><stop offset="1" style="stop-color:rgb(88,202,234);stop-opacity:1"/></linearGradient>
        <linearGradient id="_Linear8" x1="0" y1="0" x2="1" y2="0" gradientUnits="userSpaceOnUse" gradientTransform="matrix(31.4412,-0.146907,0.146907,31.4412,114.973,72.9936)"><stop offset="0" style="stop-color:rgb(75,69,189);stop-opacity:1"/><stop offset="1" style="stop-color:rgb(88,202,234);stop-opacity:1"/></linearGradient>
        <linearGradient id="_Linear9" x1="0" y1="0" x2="1" y2="0" gradientUnits="userSpaceOnUse" gradientTransform="matrix(31.4412,-0.146907,0.146907,31.4412,114.973,72.9936)"><stop offset="0" style="stop-color:rgb(75,69,189);stop-opacity:1"/><stop offset="1" style="stop-color:rgb(88,202,234);stop-opacity:1"/></linearGradient>
        <linearGradient id="_Linear10" x1="0" y1="0" x2="1" y2="0" gradientUnits="userSpaceOnUse" gradientTransform="matrix(-7.50252,-43.7742,43.7742,-7.50252,146.843,80.3369)"><stop offset="0" style="stop-color:rgb(75,69,189);stop-opacity:1"/><stop offset="1" style="stop-color:rgb(88,202,234);stop-opacity:1"/></linearGradient>
        <linearGradient id="_Linear11" x1="0" y1="0" x2="1" y2="0" gradientUnits="userSpaceOnUse" gradientTransform="matrix(-7.50252,-43.7742,43.7742,-7.50252,146.843,80.3369)"><stop offset="0" style="stop-color:rgb(75,69,189);stop-opacity:1"/><stop offset="1" style="stop-color:rgb(88,202,234);stop-opacity:1"/></linearGradient>
        <linearGradient id="_Linear12" x1="0" y1="0" x2="1" y2="0" gradientUnits="userSpaceOnUse" gradientTransform="matrix(-7.50252,-43.7742,43.7742,-7.50252,146.843,80.3369)"><stop offset="0" style="stop-color:rgb(75,69,189);stop-opacity:1"/><stop offset="1" style="stop-color:rgb(88,202,234);stop-opacity:1"/></linearGradient>
        <linearGradient id="_Linear13" x1="0" y1="0" x2="1" y2="0" gradientUnits="userSpaceOnUse" gradientTransform="matrix(-7.50252,-43.7742,43.7742,-7.50252,146.843,80.3369)"><stop offset="0" style="stop-color:rgb(75,69,189);stop-opacity:1"/><stop offset="1" style="stop-color:rgb(88,202,234);stop-opacity:1"/></linearGradient>
        <linearGradient id="_Linear14" x1="0" y1="0" x2="1" y2="0" gradientUnits="userSpaceOnUse" gradientTransform="matrix(63.0256,-49.0371,49.0371,63.0256,47.1142,165.265)"><stop offset="0" style="stop-color:rgb(75,69,189);stop-opacity:1"/><stop offset="1" style="stop-color:rgb(88,202,234);stop-opacity:1"/></linearGradient>
    </defs>
</svg>
